<svg width="24px" height="24px" viewBox="0 0 24 24" version="1.1" xmlns="http://www.w3.org/2000/svg" xmlns:xlink="http://www.w3.org/1999/xlink">
    <title>icon/ui/alert/information_circle_outlined</title>
    <g id="icon/ui/alert/information_circle_outlined" stroke="none" stroke-width="1" fill="none" fill-rule="evenodd">
        <rect id="Background" x="0" y="0" width="24" height="24"></rect>
        <path d="M12.05,2.05 C17.5728475,2.05 22.05,6.5271525 22.05,12.05 C22.05,17.5728475 17.5728475,22.05 12.05,22.05 C6.5271525,22.05 2.05,17.5728475 2.05,12.05 C2.05,6.5271525 6.5271525,2.05 12.05,2.05 Z M12.05,3.55 C7.35557963,3.55 3.55,7.35557963 3.55,12.05 C3.55,16.7444204 7.35557963,20.55 12.05,20.55 C16.7444204,20.55 20.55,16.7444204 20.55,12.05 C20.55,7.35557963 16.7444204,3.55 12.05,3.55 Z M12,10.75 C12.4142136,10.75 12.75,11.0857864 12.75,11.5 L12.75,16 C12.75,16.4142136 12.4142136,16.75 12,16.75 C11.5857864,16.75 11.25,16.4142136 11.25,16 L11.25,11.5 C11.25,11.0857864 11.5857864,10.75 12,10.75 Z M12,7.5 C12.5522847,7.5 13,7.94771525 13,8.5 C13,9.05228475 12.5522847,9.5 12,9.5 C11.4477153,9.5 11,9.05228475 11,8.5 C11,7.94771525 11.4477153,7.5 12,7.5 Z" id="Vector" fill="#000000" fill-rule="nonzero"></path>
    </g>
</svg>