<svg width="24" height="24" viewBox="0 0 24 24" xmlns="http://www.w3.org/2000/svg">
    <path d="M20.77 15.174c.37 0 .675.276.723.634l.007.099v5.86c0 .371-.275.678-.632.726l-.099.007H3.231a.732.732 0 0 1-.724-.633l-.007-.1v-5.86a.732.732 0 0 1 1.455-.1l.007.1v5.128h16.076v-5.128c0-.37.275-.677.632-.726l.1-.007zM12.412 1.628l.09.072 6.377 6.05a.734.734 0 0 1 .028 1.036.73.73 0 0 1-.949.098l-.084-.069-5.145-4.881v11.973a.732.732 0 0 1-1.454.1l-.007-.1V3.933L6.125 8.815a.73.73 0 0 1-.953.045l-.08-.074a.734.734 0 0 1-.045-.955l.073-.08 6.378-6.05.046-.039a.734.734 0 0 1 .014-.01l-.06.048a.73.73 0 0 1 .213-.14c.005 0 .009-.002.013-.004a.724.724 0 0 1 .69.072z" fill="#2D2D2D" fill-rule="evenodd"/>
</svg>
