<svg width="24" height="24" viewBox="0 0 24 24" xmlns="http://www.w3.org/2000/svg">
    <path d="M12.68 3c2.133 0 3.898 1.55 3.898 3.512l-.001.499h4.283c.321 0 .587.242.633.556l.007.096v11.685c0 .36-.286.652-.64.652H3.14a.646.646 0 0 1-.64-.652V7.663c0-.36.286-.651.64-.651l4.282-.001v-.499c0-1.9 1.653-3.412 3.693-3.507L11.32 3zM7.914 14.834H3.779v3.862H20.22v-3.862h-4.135v.853c0 .36-.286.651-.64.651a.644.644 0 0 1-.632-.555l-.007-.096-.001-.853H9.194v.853c0 .36-.286.651-.64.651a.644.644 0 0 1-.633-.555l-.006-.096-.001-.853zM20.22 8.315H3.78l-.001 5.215h4.135v-.852c0-.36.287-.652.64-.652.322 0 .588.241.633.556l.007.096v.852h5.611v-.852c0-.36.287-.652.64-.652.322 0 .588.241.634.556l.006.096v.852h4.135V8.315zm-7.54-4.011h-1.36c-1.465 0-2.618 1.012-2.618 2.208v.5h6.596v-.5c0-1.148-1.063-2.127-2.444-2.203l-.174-.005z" fill="#00C7AE" fill-rule="evenodd"/>
</svg>
