<svg width="72" height="40" viewBox="0 0 72 40" xmlns="http://www.w3.org/2000/svg">
    <g fill="none" fill-rule="evenodd">
        <path d="M42.69 0h15.228c1.757 0 3.43.348 4.951.977C68.213 3.02 72 8.074 72 13.999c0 7.092-5.418 13.065-12.445 13.986-1.021.134-1.937-.631-1.937-1.635v-1.645H42.69c-7.008 0-12.69-5.53-12.69-12.353C30 5.531 35.682 0 42.69 0" fill="#FBADB1"/>
        <g transform="translate(41 11)" fill="#FFF">
            <circle cx="2" cy="2" r="2"/>
            <circle cx="10" cy="2" r="2"/>
            <circle cx="18" cy="2" r="2"/>
        </g>
        <g>
            <path d="M29.31 12H14.082c-1.757 0-3.43.348-4.951.977C3.787 15.02 0 20.074 0 25.999c0 7.092 5.418 13.065 12.445 13.986 1.021.134 1.937-.631 1.937-1.635v-1.645H29.31c7.008 0 12.69-5.53 12.69-12.353C42 17.531 36.318 12 29.31 12" fill="#FF868D"/>
            <path d="M15.667 22.25h-.89c-.981 0-1.777.783-1.777 1.75v5.25c0 .967.796 1.75 1.778 1.75h.889c.49 0 .889-.392.889-.875v-7a.882.882 0 0 0-.89-.875m11.556 0h-4.444l.734-2.706a1.737 1.737 0 0 0-.738-1.88l-.787-.517a.897.897 0 0 0-1.288.337l-2.004 4.039a3.456 3.456 0 0 0-.361 1.536v6.191c0 .967.795 1.75 1.777 1.75h6.044c.847 0 1.577-.589 1.743-1.407l1.067-5.25c.22-1.082-.622-2.093-1.743-2.093" fill="#E5464F"/>
        </g>
    </g>
</svg>
